<?xml version="1.0" encoding="utf-8"?>
<!-- Generator: Adobe Illustrator 27.5.0, SVG Export Plug-In . SVG Version: 6.00 Build 0)  -->
<svg version="1.1" id="Layer_1" xmlns="http://www.w3.org/2000/svg" xmlns:xlink="http://www.w3.org/1999/xlink" x="0px" y="0px"
	 viewBox="0 0 287.998 287.999" style="enable-background:new 0 0 287.998 287.999;" xml:space="preserve">
<g>
	<rect style="fill:#1B1E21;" width="287.998" height="288"/>
	<g>
		<g>
			<path style="fill:#FFBB00;" d="M94.618,66.401c0.06,0.417-0.116,0.833-0.458,1.079s-0.792,0.281-1.168,0.092L89.866,66
				c-0.317-0.159-0.689-0.161-1.007-0.004l-3.139,1.546c-0.378,0.186-0.828,0.146-1.168-0.102c-0.339-0.25-0.513-0.667-0.449-1.083
				l0.53-3.459c0.053-0.35-0.06-0.706-0.308-0.96l-2.44-2.507c-0.293-0.302-0.395-0.742-0.263-1.142
				c0.132-0.4,0.476-0.692,0.891-0.761l3.453-0.565c0.35-0.057,0.652-0.274,0.817-0.589l1.63-3.096
				c0.196-0.372,0.584-0.604,1.005-0.604c0.421,0.002,0.806,0.237,0.999,0.612l1.605,3.109c0.163,0.315,0.463,0.536,0.813,0.596
				l3.448,0.594c0.415,0.072,0.756,0.368,0.884,0.77c0.128,0.4,0.023,0.84-0.273,1.14l-2.462,2.486
				c-0.249,0.252-0.365,0.606-0.315,0.957L94.618,66.401z"/>
			<path style="fill:#FFBB00;" d="M121.921,66.401c0.06,0.417-0.117,0.833-0.459,1.079c-0.342,0.246-0.792,0.281-1.168,0.092
				L117.17,66c-0.317-0.159-0.689-0.161-1.008-0.004l-3.139,1.546c-0.377,0.186-0.828,0.146-1.167-0.103
				c-0.34-0.249-0.512-0.666-0.448-1.082l0.529-3.459c0.054-0.35-0.06-0.706-0.308-0.96l-2.44-2.507
				c-0.294-0.302-0.395-0.742-0.264-1.142c0.132-0.4,0.476-0.692,0.891-0.761l3.453-0.565c0.35-0.057,0.652-0.274,0.817-0.589
				l1.63-3.096c0.197-0.372,0.584-0.604,1.004-0.604c0.422,0.002,0.807,0.237,1,0.612l1.605,3.109
				c0.163,0.315,0.463,0.536,0.813,0.596l3.448,0.594c0.415,0.072,0.756,0.369,0.885,0.77c0.128,0.401,0.023,0.84-0.273,1.14
				l-2.461,2.486c-0.249,0.252-0.366,0.606-0.315,0.957L121.921,66.401z"/>
			<path style="fill:#FFBB00;" d="M149.224,66.401c0.061,0.417-0.116,0.833-0.458,1.079c-0.342,0.246-0.793,0.281-1.169,0.092
				L144.472,66c-0.317-0.159-0.689-0.161-1.008-0.004l-3.139,1.546c-0.377,0.186-0.828,0.146-1.167-0.103
				c-0.34-0.249-0.512-0.666-0.449-1.082l0.53-3.459c0.053-0.35-0.06-0.706-0.308-0.96l-2.44-2.507
				c-0.294-0.302-0.395-0.742-0.263-1.142c0.132-0.4,0.475-0.692,0.891-0.761l3.453-0.565c0.35-0.057,0.653-0.274,0.817-0.589
				l1.63-3.096c0.197-0.372,0.584-0.604,1.005-0.604c0.421,0.002,0.807,0.237,1,0.612l1.604,3.109
				c0.162,0.315,0.463,0.536,0.812,0.596l3.448,0.594c0.415,0.072,0.756,0.369,0.885,0.77c0.128,0.401,0.023,0.84-0.273,1.14
				l-2.461,2.486c-0.249,0.252-0.366,0.606-0.316,0.957L149.224,66.401z"/>
			<path style="fill:#FFBB00;" d="M176.525,66.401c0.061,0.417-0.116,0.833-0.458,1.079c-0.342,0.246-0.792,0.281-1.169,0.092
				L171.774,66c-0.316-0.159-0.689-0.161-1.008-0.004l-3.138,1.545c-0.378,0.187-0.828,0.146-1.168-0.103s-0.513-0.667-0.449-1.083
				l0.53-3.458c0.053-0.35-0.06-0.705-0.307-0.959l-2.44-2.508c-0.294-0.302-0.395-0.742-0.263-1.143
				c0.132-0.399,0.476-0.693,0.892-0.761l3.452-0.564c0.35-0.058,0.652-0.275,0.817-0.589l1.631-3.095
				c0.196-0.373,0.584-0.605,1.005-0.604c0.421,0.002,0.806,0.238,1,0.612l1.604,3.108c0.162,0.315,0.463,0.536,0.813,0.597
				l3.447,0.594c0.415,0.072,0.756,0.368,0.884,0.771c0.128,0.4,0.023,0.84-0.273,1.14l-2.461,2.485
				c-0.249,0.252-0.366,0.607-0.315,0.957L176.525,66.401z"/>
			<path style="fill:#FFBB00;" d="M203.831,66.401c0.06,0.417-0.117,0.833-0.458,1.079c-0.341,0.246-0.792,0.282-1.168,0.093
				L199.079,66c-0.317-0.159-0.689-0.16-1.007-0.004l-3.139,1.547c-0.378,0.187-0.828,0.147-1.168-0.103
				c-0.339-0.248-0.513-0.666-0.449-1.082l0.53-3.459c0.054-0.351-0.061-0.706-0.308-0.96l-2.441-2.507
				c-0.294-0.302-0.396-0.742-0.264-1.142c0.131-0.401,0.475-0.694,0.891-0.763l3.453-0.564c0.35-0.058,0.652-0.275,0.817-0.59
				l1.631-3.096c0.196-0.373,0.583-0.605,1.004-0.604c0.422,0.001,0.807,0.237,1,0.611l1.605,3.11
				c0.163,0.314,0.463,0.535,0.813,0.596l3.449,0.594c0.416,0.071,0.756,0.367,0.885,0.769s0.023,0.841-0.273,1.14l-2.461,2.487
				c-0.249,0.251-0.366,0.605-0.315,0.956L203.831,66.401z"/>
		</g>
		<g>
			<path style="fill:#FFBB00;" d="M94.618,99.929c0.06,0.416-0.116,0.832-0.458,1.078s-0.792,0.282-1.168,0.093l-3.125-1.573
				c-0.317-0.159-0.689-0.161-1.007-0.004l-3.139,1.546c-0.378,0.187-0.828,0.146-1.168-0.102c-0.339-0.25-0.513-0.667-0.449-1.083
				l0.53-3.459c0.053-0.351-0.06-0.705-0.308-0.96l-2.44-2.507c-0.293-0.302-0.395-0.741-0.263-1.142
				c0.132-0.4,0.476-0.693,0.891-0.762l3.453-0.565c0.35-0.057,0.652-0.275,0.817-0.588l1.63-3.097
				c0.196-0.372,0.584-0.604,1.005-0.603c0.421,0.001,0.806,0.237,0.999,0.611l1.605,3.11c0.163,0.314,0.463,0.535,0.813,0.595
				l3.448,0.594c0.415,0.072,0.756,0.368,0.884,0.77c0.128,0.4,0.023,0.841-0.273,1.14l-2.462,2.486
				c-0.249,0.253-0.365,0.607-0.315,0.957L94.618,99.929z"/>
			<path style="fill:#FFBB00;" d="M121.921,99.929c0.06,0.416-0.117,0.832-0.459,1.078c-0.342,0.246-0.792,0.282-1.168,0.093
				l-3.125-1.573c-0.317-0.159-0.689-0.161-1.008-0.004l-3.139,1.546c-0.377,0.187-0.828,0.146-1.167-0.103
				c-0.34-0.249-0.512-0.666-0.448-1.082l0.529-3.459c0.054-0.351-0.06-0.705-0.308-0.96l-2.44-2.507
				c-0.294-0.302-0.395-0.741-0.264-1.142c0.132-0.4,0.476-0.693,0.891-0.762l3.453-0.565c0.35-0.057,0.652-0.275,0.817-0.588
				l1.63-3.097c0.197-0.372,0.584-0.604,1.004-0.603c0.422,0.001,0.807,0.237,1,0.611l1.605,3.11
				c0.163,0.314,0.463,0.535,0.813,0.595l3.448,0.594c0.415,0.072,0.756,0.369,0.885,0.77c0.128,0.401,0.023,0.841-0.273,1.14
				l-2.461,2.486c-0.249,0.253-0.366,0.607-0.315,0.957L121.921,99.929z"/>
			<path style="fill:#FFBB00;" d="M149.224,99.929c0.061,0.416-0.116,0.832-0.458,1.078c-0.342,0.246-0.793,0.282-1.169,0.093
				l-3.126-1.573c-0.317-0.159-0.689-0.161-1.008-0.004l-3.139,1.546c-0.377,0.187-0.828,0.146-1.167-0.103
				c-0.34-0.249-0.512-0.666-0.449-1.082l0.53-3.459c0.053-0.351-0.06-0.705-0.308-0.96l-2.44-2.507
				c-0.294-0.302-0.395-0.741-0.263-1.142c0.132-0.4,0.475-0.693,0.891-0.762l3.453-0.565c0.35-0.057,0.653-0.275,0.817-0.588
				l1.63-3.097c0.197-0.372,0.584-0.604,1.005-0.603c0.421,0.001,0.807,0.237,1,0.611l1.604,3.11
				c0.162,0.314,0.463,0.535,0.812,0.595l3.448,0.594c0.415,0.072,0.756,0.369,0.885,0.77c0.128,0.401,0.023,0.841-0.273,1.14
				l-2.461,2.486c-0.249,0.253-0.366,0.607-0.316,0.957L149.224,99.929z"/>
			<path style="fill:#FFBB00;" d="M176.525,99.928c0.061,0.417-0.116,0.833-0.458,1.079c-0.342,0.246-0.792,0.281-1.169,0.093
				l-3.124-1.573c-0.316-0.159-0.689-0.161-1.008-0.005l-3.138,1.546c-0.378,0.187-0.828,0.146-1.168-0.103
				c-0.34-0.249-0.513-0.667-0.449-1.083l0.53-3.458c0.053-0.35-0.06-0.705-0.307-0.959l-2.44-2.508
				c-0.294-0.302-0.395-0.742-0.263-1.143c0.132-0.399,0.476-0.692,0.892-0.761l3.452-0.564c0.35-0.058,0.652-0.275,0.817-0.589
				l1.631-3.095c0.196-0.373,0.584-0.605,1.005-0.604c0.421,0.002,0.806,0.238,1,0.612l1.604,3.108
				c0.162,0.316,0.463,0.536,0.813,0.597l3.447,0.595c0.415,0.071,0.756,0.367,0.884,0.769c0.128,0.4,0.023,0.84-0.273,1.14
				l-2.461,2.485c-0.249,0.252-0.366,0.606-0.315,0.957L176.525,99.928z"/>
			<path style="fill:#7A7A7A;" d="M203.831,99.928c0.06,0.417-0.117,0.833-0.458,1.079c-0.341,0.246-0.792,0.282-1.168,0.093
				l-3.126-1.573c-0.317-0.159-0.689-0.161-1.007-0.004l-3.139,1.547c-0.378,0.187-0.828,0.147-1.168-0.103
				c-0.339-0.249-0.513-0.666-0.449-1.082l0.53-3.459c0.054-0.351-0.061-0.706-0.308-0.96l-2.441-2.507
				c-0.294-0.302-0.396-0.742-0.264-1.143c0.131-0.4,0.475-0.693,0.891-0.762l3.453-0.565c0.35-0.058,0.652-0.275,0.817-0.589
				l1.631-3.097c0.196-0.373,0.583-0.605,1.004-0.604c0.422,0.002,0.807,0.237,1,0.611l1.605,3.11
				c0.163,0.314,0.463,0.535,0.813,0.596l3.449,0.594c0.416,0.071,0.756,0.367,0.885,0.769c0.128,0.401,0.023,0.841-0.273,1.14
				l-2.461,2.487c-0.249,0.252-0.366,0.607-0.315,0.956L203.831,99.928z"/>
		</g>
		<g>
			<path style="fill:#FFBB00;" d="M94.618,133.454c0.06,0.417-0.116,0.833-0.458,1.079c-0.342,0.246-0.792,0.281-1.168,0.092
				l-3.125-1.572c-0.317-0.159-0.689-0.161-1.007-0.004l-3.139,1.546c-0.378,0.186-0.828,0.146-1.168-0.102
				c-0.339-0.25-0.513-0.667-0.449-1.083l0.53-3.459c0.053-0.351-0.06-0.706-0.308-0.96l-2.44-2.507
				c-0.293-0.302-0.395-0.742-0.263-1.143c0.132-0.399,0.476-0.692,0.891-0.761l3.453-0.565c0.35-0.057,0.652-0.274,0.817-0.589
				l1.63-3.096c0.196-0.372,0.584-0.604,1.005-0.604c0.421,0.002,0.806,0.237,0.999,0.612l1.605,3.109
				c0.163,0.314,0.463,0.536,0.813,0.596l3.448,0.594c0.415,0.071,0.756,0.368,0.884,0.77c0.128,0.4,0.023,0.84-0.273,1.14
				l-2.462,2.486c-0.249,0.253-0.365,0.606-0.315,0.957L94.618,133.454z"/>
			<path style="fill:#FFBB00;" d="M121.921,133.454c0.06,0.417-0.117,0.833-0.459,1.079c-0.342,0.246-0.792,0.281-1.168,0.092
				l-3.125-1.572c-0.317-0.159-0.689-0.161-1.008-0.004l-3.139,1.546c-0.377,0.186-0.828,0.146-1.167-0.102
				c-0.34-0.249-0.512-0.666-0.448-1.082l0.529-3.459c0.054-0.351-0.06-0.706-0.308-0.96l-2.44-2.508
				c-0.294-0.301-0.395-0.741-0.264-1.142c0.132-0.399,0.476-0.692,0.891-0.761l3.453-0.565c0.35-0.057,0.652-0.274,0.817-0.589
				l1.63-3.096c0.197-0.372,0.584-0.604,1.004-0.604c0.422,0.002,0.807,0.237,1,0.612l1.605,3.109
				c0.163,0.314,0.463,0.536,0.813,0.596l3.448,0.594c0.415,0.071,0.756,0.368,0.885,0.77c0.128,0.401,0.023,0.84-0.273,1.14
				l-2.461,2.486c-0.249,0.253-0.366,0.606-0.315,0.957L121.921,133.454z"/>
			<path style="fill:#FFBB00;" d="M149.224,133.454c0.061,0.417-0.116,0.833-0.458,1.079c-0.342,0.246-0.793,0.281-1.169,0.092
				l-3.126-1.572c-0.317-0.159-0.689-0.161-1.008-0.004l-3.139,1.546c-0.377,0.186-0.828,0.146-1.167-0.102
				c-0.34-0.249-0.512-0.666-0.449-1.082l0.53-3.459c0.053-0.351-0.06-0.706-0.308-0.96l-2.44-2.508
				c-0.294-0.301-0.395-0.741-0.263-1.142c0.132-0.399,0.475-0.692,0.891-0.761l3.453-0.565c0.35-0.057,0.653-0.274,0.817-0.589
				l1.63-3.096c0.197-0.372,0.584-0.604,1.005-0.604c0.421,0.002,0.807,0.237,1,0.612l1.604,3.109
				c0.162,0.314,0.463,0.536,0.812,0.596l3.448,0.594c0.415,0.071,0.756,0.368,0.885,0.77c0.128,0.401,0.023,0.84-0.273,1.14
				l-2.461,2.486c-0.249,0.253-0.366,0.606-0.316,0.957L149.224,133.454z"/>
			<path style="fill:#7A7A7A;" d="M176.525,133.454c0.061,0.417-0.116,0.833-0.458,1.079c-0.342,0.246-0.792,0.281-1.169,0.092
				l-3.124-1.572c-0.316-0.159-0.689-0.161-1.008-0.005l-3.138,1.546c-0.378,0.186-0.828,0.146-1.168-0.103
				c-0.34-0.25-0.513-0.667-0.449-1.083l0.53-3.458c0.053-0.35-0.06-0.705-0.307-0.959l-2.44-2.508
				c-0.294-0.302-0.395-0.742-0.263-1.143c0.132-0.399,0.476-0.693,0.892-0.762l3.452-0.564c0.35-0.057,0.652-0.274,0.817-0.588
				l1.631-3.096c0.196-0.372,0.584-0.604,1.005-0.604c0.421,0.003,0.806,0.239,1,0.613l1.604,3.108
				c0.162,0.315,0.463,0.536,0.813,0.596l3.447,0.595c0.415,0.072,0.756,0.368,0.884,0.77c0.128,0.401,0.023,0.841-0.273,1.14
				l-2.461,2.486c-0.249,0.252-0.366,0.606-0.315,0.957L176.525,133.454z"/>
			<path style="fill:#7A7A7A;" d="M203.831,133.454c0.06,0.417-0.117,0.833-0.458,1.079c-0.341,0.246-0.792,0.282-1.168,0.093
				l-3.126-1.572c-0.317-0.16-0.689-0.161-1.007-0.005l-3.139,1.547c-0.378,0.186-0.828,0.146-1.168-0.103
				c-0.339-0.249-0.513-0.666-0.449-1.082l0.53-3.46c0.054-0.35-0.061-0.705-0.308-0.959l-2.441-2.507
				c-0.294-0.302-0.396-0.742-0.264-1.142c0.131-0.401,0.475-0.694,0.891-0.763l3.453-0.564c0.35-0.058,0.652-0.275,0.817-0.59
				l1.631-3.096c0.196-0.373,0.583-0.605,1.004-0.604c0.422,0.001,0.807,0.237,1,0.611l1.605,3.11
				c0.163,0.314,0.463,0.535,0.813,0.596l3.449,0.594c0.416,0.071,0.756,0.367,0.885,0.769c0.128,0.401,0.023,0.84-0.273,1.14
				l-2.461,2.487c-0.249,0.251-0.366,0.606-0.315,0.956L203.831,133.454z"/>
		</g>
		<g>
			<path style="fill:#FFBB00;" d="M94.618,166.98c0.06,0.417-0.116,0.833-0.458,1.079s-0.792,0.281-1.168,0.092l-3.125-1.572
				c-0.317-0.159-0.689-0.161-1.007-0.005l-3.139,1.547c-0.378,0.186-0.828,0.146-1.168-0.102c-0.339-0.249-0.513-0.666-0.449-1.083
				l0.53-3.458c0.053-0.35-0.06-0.706-0.308-0.96l-2.44-2.507c-0.293-0.302-0.395-0.742-0.263-1.143
				c0.132-0.399,0.476-0.693,0.891-0.761l3.453-0.565c0.35-0.057,0.652-0.274,0.817-0.589l1.63-3.096
				c0.196-0.372,0.584-0.605,1.005-0.604c0.421,0.002,0.806,0.237,0.999,0.612l1.605,3.109c0.163,0.315,0.463,0.536,0.813,0.596
				l3.448,0.594c0.415,0.071,0.756,0.368,0.884,0.77c0.128,0.4,0.023,0.84-0.273,1.14l-2.462,2.486
				c-0.249,0.252-0.365,0.607-0.315,0.957L94.618,166.98z"/>
			<path style="fill:#FFBB00;" d="M121.921,166.98c0.06,0.417-0.117,0.833-0.459,1.079c-0.342,0.246-0.792,0.281-1.168,0.092
				l-3.125-1.572c-0.317-0.159-0.689-0.161-1.008-0.005l-3.139,1.547c-0.377,0.186-0.828,0.146-1.167-0.102
				c-0.34-0.249-0.512-0.666-0.448-1.083l0.529-3.458c0.054-0.35-0.06-0.706-0.308-0.96l-2.44-2.507
				c-0.294-0.302-0.395-0.742-0.264-1.143c0.132-0.399,0.476-0.693,0.891-0.761l3.453-0.565c0.35-0.057,0.652-0.274,0.817-0.589
				l1.63-3.096c0.197-0.372,0.584-0.605,1.004-0.604c0.422,0.002,0.807,0.237,1,0.612l1.605,3.109
				c0.163,0.315,0.463,0.536,0.813,0.596l3.448,0.594c0.415,0.071,0.756,0.369,0.885,0.77c0.128,0.401,0.023,0.84-0.273,1.14
				l-2.461,2.486c-0.249,0.252-0.366,0.607-0.315,0.957L121.921,166.98z"/>
			<path style="fill:#7A7A7A;" d="M149.224,166.98c0.061,0.417-0.116,0.833-0.458,1.079c-0.342,0.246-0.793,0.281-1.169,0.092
				l-3.126-1.572c-0.317-0.159-0.689-0.161-1.008-0.005l-3.139,1.547c-0.377,0.186-0.828,0.146-1.167-0.102
				c-0.34-0.249-0.512-0.666-0.449-1.083l0.53-3.458c0.053-0.35-0.06-0.706-0.308-0.96l-2.44-2.507
				c-0.294-0.302-0.395-0.742-0.263-1.143c0.132-0.399,0.475-0.693,0.891-0.761l3.453-0.565c0.35-0.057,0.653-0.274,0.817-0.589
				l1.63-3.096c0.197-0.372,0.584-0.605,1.005-0.604c0.421,0.002,0.807,0.237,1,0.612l1.604,3.109
				c0.162,0.315,0.463,0.536,0.812,0.596l3.448,0.594c0.415,0.071,0.756,0.369,0.885,0.77c0.128,0.401,0.023,0.84-0.273,1.14
				l-2.461,2.486c-0.249,0.252-0.366,0.607-0.316,0.957L149.224,166.98z"/>
			<path style="fill:#7A7A7A;" d="M176.525,166.98c0.061,0.417-0.116,0.833-0.458,1.079c-0.342,0.246-0.792,0.281-1.169,0.092
				l-3.124-1.572c-0.316-0.159-0.689-0.161-1.008-0.005l-3.138,1.546c-0.378,0.186-0.828,0.146-1.168-0.103
				c-0.34-0.249-0.513-0.667-0.449-1.082l0.53-3.459c0.053-0.35-0.06-0.705-0.307-0.959l-2.44-2.508
				c-0.294-0.302-0.395-0.742-0.263-1.143c0.132-0.399,0.476-0.693,0.892-0.761l3.452-0.564c0.35-0.058,0.652-0.275,0.817-0.589
				l1.631-3.095c0.196-0.373,0.584-0.605,1.005-0.604c0.421,0.002,0.806,0.238,1,0.612l1.604,3.108
				c0.162,0.315,0.463,0.536,0.813,0.597l3.447,0.594c0.415,0.072,0.756,0.368,0.884,0.77c0.128,0.4,0.023,0.84-0.273,1.14
				l-2.461,2.485c-0.249,0.252-0.366,0.607-0.315,0.957L176.525,166.98z"/>
			<path style="fill:#7A7A7A;" d="M203.831,166.98c0.06,0.417-0.117,0.833-0.458,1.079c-0.341,0.246-0.792,0.282-1.168,0.093
				l-3.126-1.573c-0.317-0.159-0.689-0.16-1.007-0.004l-3.139,1.547c-0.378,0.186-0.828,0.146-1.168-0.103
				c-0.339-0.249-0.513-0.666-0.449-1.082l0.53-3.459c0.054-0.351-0.061-0.706-0.308-0.96l-2.441-2.507
				c-0.294-0.302-0.396-0.742-0.264-1.142c0.131-0.401,0.475-0.694,0.891-0.763l3.453-0.565c0.35-0.057,0.652-0.274,0.817-0.589
				l1.631-3.096c0.196-0.373,0.583-0.605,1.004-0.604c0.422,0.001,0.807,0.237,1,0.611l1.605,3.11
				c0.163,0.314,0.463,0.535,0.813,0.596l3.449,0.594c0.416,0.071,0.756,0.367,0.885,0.769c0.128,0.401,0.023,0.841-0.273,1.14
				l-2.461,2.487c-0.249,0.251-0.366,0.605-0.315,0.956L203.831,166.98z"/>
		</g>
		<g>
			<path style="fill:#FFBB00;" d="M94.618,200.508c0.06,0.416-0.116,0.831-0.458,1.077c-0.342,0.246-0.792,0.282-1.168,0.093
				l-3.125-1.572c-0.317-0.159-0.689-0.161-1.007-0.005l-3.139,1.547c-0.378,0.185-0.828,0.146-1.168-0.103
				c-0.339-0.249-0.513-0.666-0.449-1.082l0.53-3.459c0.053-0.351-0.06-0.706-0.308-0.96l-2.44-2.507
				c-0.293-0.302-0.395-0.742-0.263-1.142c0.132-0.4,0.476-0.694,0.891-0.762l3.453-0.565c0.35-0.057,0.652-0.275,0.817-0.589
				l1.63-3.096c0.196-0.373,0.584-0.605,1.005-0.604c0.421,0.002,0.806,0.237,0.999,0.612l1.605,3.11
				c0.163,0.314,0.463,0.533,0.813,0.595l3.448,0.594c0.415,0.071,0.756,0.368,0.884,0.77c0.128,0.4,0.023,0.84-0.273,1.14
				l-2.462,2.486c-0.249,0.253-0.365,0.607-0.315,0.957L94.618,200.508z"/>
			<path style="fill:#7A7A7A;" d="M121.921,200.508c0.06,0.416-0.117,0.831-0.459,1.077c-0.342,0.246-0.792,0.282-1.168,0.093
				l-3.125-1.572c-0.317-0.159-0.689-0.161-1.008-0.005l-3.139,1.547c-0.377,0.185-0.828,0.146-1.167-0.103
				c-0.34-0.249-0.512-0.666-0.448-1.082l0.529-3.459c0.054-0.351-0.06-0.706-0.308-0.96l-2.44-2.507
				c-0.294-0.302-0.395-0.742-0.264-1.142c0.132-0.4,0.476-0.694,0.891-0.762l3.453-0.565c0.35-0.057,0.652-0.275,0.817-0.589
				l1.63-3.096c0.197-0.373,0.584-0.605,1.004-0.604c0.422,0.002,0.807,0.237,1,0.612l1.605,3.11
				c0.163,0.314,0.463,0.533,0.813,0.595l3.448,0.594c0.415,0.071,0.756,0.368,0.885,0.77c0.128,0.401,0.023,0.84-0.273,1.14
				l-2.461,2.486c-0.249,0.253-0.366,0.607-0.315,0.957L121.921,200.508z"/>
			<path style="fill:#7A7A7A;" d="M149.224,200.508c0.061,0.416-0.116,0.831-0.458,1.077c-0.342,0.246-0.793,0.282-1.169,0.093
				l-3.126-1.572c-0.317-0.159-0.689-0.161-1.008-0.005l-3.139,1.547c-0.377,0.185-0.828,0.146-1.167-0.103
				c-0.34-0.249-0.512-0.666-0.449-1.082l0.53-3.459c0.053-0.351-0.06-0.706-0.308-0.96l-2.44-2.507
				c-0.294-0.302-0.395-0.742-0.263-1.142c0.132-0.4,0.475-0.694,0.891-0.762l3.453-0.565c0.35-0.057,0.653-0.275,0.817-0.589
				l1.63-3.096c0.197-0.373,0.584-0.605,1.005-0.604c0.421,0.002,0.807,0.237,1,0.612l1.604,3.11
				c0.162,0.314,0.463,0.533,0.812,0.595l3.448,0.594c0.415,0.071,0.756,0.368,0.885,0.77c0.128,0.401,0.023,0.84-0.273,1.14
				l-2.461,2.486c-0.249,0.253-0.366,0.607-0.316,0.957L149.224,200.508z"/>
			<path style="fill:#7A7A7A;" d="M176.525,200.507c0.061,0.417-0.116,0.832-0.458,1.078c-0.342,0.246-0.792,0.282-1.169,0.093
				l-3.124-1.572c-0.316-0.159-0.689-0.161-1.008-0.005l-3.138,1.545c-0.378,0.187-0.828,0.147-1.168-0.102
				c-0.34-0.249-0.513-0.667-0.449-1.082l0.53-3.459c0.053-0.351-0.06-0.705-0.307-0.959l-2.44-2.508
				c-0.294-0.302-0.395-0.742-0.263-1.143c0.132-0.4,0.476-0.692,0.892-0.762l3.452-0.564c0.35-0.057,0.652-0.274,0.817-0.589
				l1.631-3.095c0.196-0.372,0.584-0.605,1.005-0.604c0.421,0.003,0.806,0.239,1,0.612l1.604,3.109
				c0.162,0.315,0.463,0.536,0.813,0.596l3.447,0.595c0.415,0.072,0.756,0.368,0.884,0.77c0.128,0.401,0.023,0.841-0.273,1.141
				l-2.461,2.485c-0.249,0.252-0.366,0.605-0.315,0.957L176.525,200.507z"/>
			<path style="fill:#7A7A7A;" d="M203.831,200.508c0.06,0.416-0.117,0.831-0.458,1.077c-0.341,0.246-0.792,0.282-1.168,0.093
				l-3.126-1.572c-0.317-0.159-0.689-0.161-1.007-0.004l-3.139,1.547c-0.378,0.187-0.828,0.146-1.168-0.103
				c-0.339-0.249-0.513-0.666-0.449-1.083l0.53-3.458c0.054-0.352-0.061-0.706-0.308-0.961l-2.441-2.506
				c-0.294-0.303-0.396-0.742-0.264-1.143c0.131-0.4,0.475-0.693,0.891-0.762l3.453-0.565c0.35-0.057,0.652-0.275,0.817-0.589
				l1.631-3.096c0.196-0.373,0.583-0.605,1.004-0.605c0.422,0.002,0.807,0.238,1,0.612l1.605,3.11
				c0.163,0.314,0.463,0.534,0.813,0.595l3.449,0.594c0.416,0.071,0.756,0.368,0.885,0.77c0.128,0.4,0.023,0.84-0.273,1.139
				l-2.461,2.487c-0.249,0.252-0.366,0.607-0.315,0.957L203.831,200.508z"/>
		</g>
		<g>
			<path style="fill:#7A7A7A;" d="M94.618,234.033c0.06,0.417-0.116,0.832-0.458,1.079c-0.342,0.246-0.792,0.281-1.168,0.092
				l-3.125-1.572c-0.317-0.159-0.689-0.161-1.007-0.005l-3.139,1.547c-0.378,0.186-0.828,0.146-1.168-0.102
				c-0.339-0.249-0.513-0.666-0.449-1.082l0.53-3.459c0.053-0.351-0.06-0.706-0.308-0.959l-2.44-2.508
				c-0.293-0.302-0.395-0.742-0.263-1.143c0.132-0.399,0.476-0.693,0.891-0.761l3.453-0.566c0.35-0.057,0.652-0.275,0.817-0.589
				l1.63-3.096c0.196-0.373,0.584-0.605,1.005-0.604c0.421,0.002,0.806,0.237,0.999,0.612l1.605,3.109
				c0.163,0.314,0.463,0.535,0.813,0.596l3.448,0.594c0.415,0.071,0.756,0.368,0.884,0.77c0.128,0.4,0.023,0.84-0.273,1.14
				l-2.462,2.486c-0.249,0.252-0.365,0.606-0.315,0.957L94.618,234.033z"/>
			<path style="fill:#7A7A7A;" d="M121.921,234.033c0.06,0.417-0.117,0.832-0.459,1.079c-0.342,0.246-0.792,0.281-1.168,0.092
				l-3.125-1.572c-0.317-0.159-0.689-0.161-1.008-0.005l-3.139,1.547c-0.377,0.186-0.828,0.146-1.167-0.102
				c-0.34-0.249-0.512-0.666-0.448-1.082l0.529-3.459c0.054-0.351-0.06-0.706-0.308-0.96l-2.44-2.508
				c-0.294-0.301-0.395-0.741-0.264-1.142c0.132-0.399,0.476-0.693,0.891-0.761l3.453-0.566c0.35-0.057,0.652-0.275,0.817-0.589
				l1.63-3.096c0.197-0.373,0.584-0.605,1.004-0.604c0.422,0.002,0.807,0.237,1,0.612l1.605,3.109
				c0.163,0.314,0.463,0.535,0.813,0.596l3.448,0.594c0.415,0.071,0.756,0.368,0.885,0.77c0.128,0.4,0.023,0.84-0.273,1.14
				l-2.461,2.486c-0.249,0.252-0.366,0.606-0.315,0.957L121.921,234.033z"/>
			<path style="fill:#7A7A7A;" d="M149.224,234.033c0.061,0.417-0.116,0.832-0.458,1.079c-0.342,0.246-0.793,0.281-1.169,0.092
				l-3.126-1.572c-0.317-0.159-0.689-0.161-1.008-0.005l-3.139,1.547c-0.377,0.186-0.828,0.146-1.167-0.102
				c-0.34-0.249-0.512-0.666-0.449-1.082l0.53-3.459c0.053-0.351-0.06-0.706-0.308-0.96l-2.44-2.508
				c-0.294-0.301-0.395-0.741-0.263-1.142c0.132-0.399,0.475-0.693,0.891-0.761l3.453-0.566c0.35-0.057,0.653-0.275,0.817-0.589
				l1.63-3.096c0.197-0.373,0.584-0.605,1.005-0.604c0.421,0.002,0.807,0.237,1,0.612l1.604,3.109
				c0.162,0.314,0.463,0.535,0.812,0.596l3.448,0.594c0.415,0.071,0.756,0.368,0.885,0.77c0.128,0.4,0.023,0.84-0.273,1.14
				l-2.461,2.486c-0.249,0.252-0.366,0.606-0.316,0.957L149.224,234.033z"/>
			<path style="fill:#7A7A7A;" d="M176.525,234.033c0.061,0.417-0.116,0.832-0.458,1.079c-0.342,0.246-0.792,0.281-1.169,0.092
				l-3.124-1.572c-0.316-0.159-0.689-0.161-1.008-0.005l-3.138,1.545c-0.378,0.186-0.828,0.146-1.168-0.102
				c-0.34-0.249-0.513-0.667-0.449-1.083l0.53-3.458c0.053-0.35-0.06-0.705-0.307-0.959l-2.44-2.508
				c-0.294-0.302-0.395-0.742-0.263-1.143c0.132-0.4,0.476-0.693,0.892-0.762l3.452-0.564c0.35-0.057,0.652-0.274,0.817-0.588
				l1.631-3.096c0.196-0.372,0.584-0.605,1.005-0.604c0.421,0.003,0.806,0.238,1,0.613l1.604,3.108
				c0.162,0.315,0.463,0.536,0.813,0.596l3.447,0.595c0.415,0.072,0.756,0.368,0.884,0.77c0.128,0.401,0.023,0.841-0.273,1.14
				l-2.461,2.486c-0.249,0.252-0.366,0.606-0.315,0.957L176.525,234.033z"/>
			<path style="fill:#7A7A7A;" d="M203.831,234.033c0.06,0.417-0.117,0.833-0.458,1.079c-0.341,0.246-0.792,0.281-1.168,0.093
				l-3.126-1.573c-0.317-0.159-0.689-0.16-1.007-0.004l-3.139,1.547c-0.378,0.186-0.828,0.146-1.168-0.103
				c-0.339-0.249-0.513-0.666-0.449-1.083l0.53-3.459c0.054-0.351-0.061-0.705-0.308-0.959l-2.441-2.507
				c-0.294-0.302-0.396-0.742-0.264-1.142c0.131-0.401,0.475-0.694,0.891-0.763l3.453-0.564c0.35-0.058,0.652-0.276,0.817-0.59
				l1.631-3.096c0.196-0.373,0.583-0.605,1.004-0.605c0.422,0.002,0.807,0.238,1,0.612l1.605,3.11
				c0.163,0.314,0.463,0.535,0.813,0.596l3.449,0.594c0.416,0.07,0.756,0.367,0.885,0.768c0.128,0.4,0.023,0.84-0.273,1.14
				l-2.461,2.486c-0.249,0.252-0.366,0.606-0.315,0.957L203.831,234.033z"/>
		</g>
	</g>
</g>
</svg>
