<?xml version="1.0" encoding="UTF-8"?>
<!DOCTYPE svg PUBLIC "-//W3C//DTD SVG 1.1//EN" "http://www.w3.org/Graphics/SVG/1.1/DTD/svg11.dtd">
<svg xmlns="http://www.w3.org/2000/svg" version="1.1" width="1024px" height="692px" style="shape-rendering:geometricPrecision; text-rendering:geometricPrecision; image-rendering:optimizeQuality; fill-rule:evenodd; clip-rule:evenodd" xmlns:xlink="http://www.w3.org/1999/xlink">
<g><path style="opacity:0.993" fill="#000000" d="M 609.5,2.5 C 610.496,2.41423 611.329,2.74756 612,3.5C 698.5,153.333 785,303.167 871.5,453C 803.831,453.833 736.164,453.667 668.5,452.5C 599.62,331.902 530.62,211.402 461.5,91C 510.986,61.6649 560.319,32.1649 609.5,2.5 Z"/></g>
<g><path style="opacity:0.991" fill="#000000" d="M 438.5,161.5 C 439.496,161.414 440.329,161.748 441,162.5C 496.715,259.273 551.882,356.273 606.5,453.5C 554.167,453.5 501.833,453.5 449.5,453.5C 449.5,467.833 449.5,482.167 449.5,496.5C 434.588,496.824 419.755,496.491 405,495.5C 404.667,480.833 404.333,466.167 404,451.5C 365.366,383.732 326.866,315.899 288.5,248C 338.371,218.899 388.371,190.066 438.5,161.5 Z"/></g>
<g><path style="opacity:0.988" fill="#000000" d="M 261.5,315.5 C 263.074,315.937 264.241,316.937 265,318.5C 291.033,363.037 316.866,407.704 342.5,452.5C 275.167,453.833 207.833,453.833 140.5,452.5C 131.293,435.919 121.96,419.419 112.5,403C 162.23,373.807 211.896,344.64 261.5,315.5 Z"/></g>
<g><path style="opacity:0.978" fill="#000000" d="M 292.5,691.5 C 291.167,691.5 289.833,691.5 288.5,691.5C 250.608,688.781 223.775,670.115 208,635.5C 194.075,594.697 202.908,559.864 234.5,531C 264.412,509.861 296.412,506.195 330.5,520C 334.167,522.167 337.833,524.333 341.5,526.5C 342.5,502.509 342.833,478.509 342.5,454.5C 357.167,454.5 371.833,454.5 386.5,454.5C 386.5,532.167 386.5,609.833 386.5,687.5C 371.833,687.5 357.167,687.5 342.5,687.5C 342.665,683.818 342.499,680.152 342,676.5C 326.747,685.934 310.247,690.934 292.5,691.5 Z M 287.5,551.5 C 319.572,552.739 337.905,569.239 342.5,601C 338.701,630.132 322.201,646.632 293,650.5C 271.464,649.287 256.131,638.954 247,619.5C 239.03,593.624 246.197,573.124 268.5,558C 274.59,554.738 280.924,552.571 287.5,551.5 Z"/></g>
<g><path style="opacity:0.979" fill="#000000" d="M 558.5,691.5 C 557.5,691.5 556.5,691.5 555.5,691.5C 510.497,688 481.33,664.667 468,621.5C 460.413,571.834 479.58,537 525.5,517C 547.618,509.496 569.618,509.83 591.5,518C 596.744,520.203 601.578,523.036 606,526.5C 606.5,502.502 606.667,478.502 606.5,454.5C 621.167,454.5 635.833,454.5 650.5,454.5C 650.5,532.167 650.5,609.833 650.5,687.5C 635.833,687.5 621.167,687.5 606.5,687.5C 606.665,683.818 606.499,680.152 606,676.5C 599.808,681.18 592.975,684.68 585.5,687C 576.498,689.389 567.498,690.889 558.5,691.5 Z M 551.5,551.5 C 584.214,552.049 602.548,568.549 606.5,601C 603.361,630.806 586.861,647.306 557,650.5C 527.145,647.312 510.645,630.812 507.5,601C 510.746,574.258 525.413,557.758 551.5,551.5 Z"/></g>
<g><path style="opacity:0.794" fill="#000000" d="M 985.5,454.5 C 1007.97,453.508 1016.8,463.842 1012,485.5C 1005.47,496.68 995.972,500.18 983.5,496C 971.411,489.33 967.578,479.497 972,466.5C 975.454,461.206 979.954,457.206 985.5,454.5 Z M 990.5,457.5 C 1007.16,460.805 1012.32,470.471 1006,486.5C 998.059,495.232 989.392,496.232 980,489.5C 974,480.5 974,471.5 980,462.5C 983.147,459.841 986.647,458.174 990.5,457.5 Z M 988.5,467.5 C 994.5,466.167 996.833,468.5 995.5,474.5C 993.167,474.5 990.833,474.5 988.5,474.5C 988.5,472.167 988.5,469.833 988.5,467.5 Z"/></g>
<g><path style="opacity:0.786" fill="#000000" d="M 984.5,463.5 C 988.182,463.335 991.848,463.501 995.5,464C 1002.74,468.08 1003.41,473.08 997.5,479C 999.233,481.958 1000.23,485.125 1000.5,488.5C 998.856,488.714 997.356,488.38 996,487.5C 994.259,484.691 993.092,481.691 992.5,478.5C 991.167,478.5 989.833,478.5 988.5,478.5C 988.665,481.518 988.498,484.518 988,487.5C 986.989,488.337 985.822,488.67 984.5,488.5C 984.5,480.167 984.5,471.833 984.5,463.5 Z M 988.5,467.5 C 988.5,469.833 988.5,472.167 988.5,474.5C 990.833,474.5 993.167,474.5 995.5,474.5C 996.833,468.5 994.5,466.167 988.5,467.5 Z"/></g>
<g><path style="opacity:0.975" fill="#000000" d="M 92.5,691.5 C 91.5,691.5 90.5,691.5 89.5,691.5C 48.1463,687.324 20.313,665.657 6,626.5C -3.91873,582.868 9.58127,548.702 46.5,524C 78.8511,506.773 110.684,507.606 142,526.5C 142.2,522.247 142.7,518.08 143.5,514C 158.163,513.5 172.83,513.333 187.5,513.5C 187.667,571.168 187.5,628.834 187,686.5C 172.575,687.656 158.075,687.823 143.5,687C 142.712,683.924 142.212,680.758 142,677.5C 126.678,686.62 110.178,691.286 92.5,691.5 Z M 88.5,551.5 C 121.418,551.924 139.418,568.424 142.5,601C 140.138,631.196 123.804,647.696 93.5,650.5C 63.8765,647.044 47.5432,630.544 44.5,601C 45.5217,581.943 54.1884,567.61 70.5,558C 76.2935,554.905 82.2935,552.739 88.5,551.5 Z"/></g>
<g><path style="opacity:0.968" fill="#000000" d="M 404.5,511.5 C 419.5,511.5 434.5,511.5 449.5,511.5C 449.5,569.5 449.5,627.5 449.5,685.5C 434.5,685.5 419.5,685.5 404.5,685.5C 404.5,627.5 404.5,569.5 404.5,511.5 Z"/></g>
<g><path style="opacity:0.976" fill="#000000" d="M 755.5,691.5 C 754.167,691.5 752.833,691.5 751.5,691.5C 714.44,689.053 687.94,671.053 672,637.5C 656.194,593.876 666.028,557.376 701.5,528C 735.563,506.622 769.896,506.122 804.5,526.5C 805.492,522.217 805.826,517.884 805.5,513.5C 819.5,513.5 833.5,513.5 847.5,513.5C 847.667,571.168 847.5,628.834 847,686.5C 833.246,687.49 819.412,687.823 805.5,687.5C 805.665,683.818 805.499,680.152 805,676.5C 789.747,685.934 773.247,690.934 755.5,691.5 Z M 750.5,551.5 C 782.546,552.711 800.879,569.211 805.5,601C 801.703,630.131 785.203,646.631 756,650.5C 734.464,649.287 719.131,638.954 710,619.5C 702.03,593.624 709.197,573.124 731.5,558C 737.59,554.738 743.924,552.571 750.5,551.5 Z"/></g>
<g><path style="opacity:0.977" fill="#000000" d="M 929.5,511.5 C 951.823,509.529 972.489,514.363 991.5,526C 1005.55,536.601 1012.88,550.767 1013.5,568.5C 998.833,568.5 984.167,568.5 969.5,568.5C 969.393,555.224 962.726,547.724 949.5,546C 938.76,544.57 928.427,545.903 918.5,550C 911.048,556.441 910.715,563.108 917.5,570C 921.271,572.219 925.271,573.885 929.5,575C 944.479,577.774 959.479,580.441 974.5,583C 1014.83,593.318 1028.33,618.151 1015,657.5C 1007.45,671.049 996.283,680.216 981.5,685C 956.155,692.287 930.822,692.287 905.5,685C 880.009,675.677 866.009,657.51 863.5,630.5C 879.167,630.5 894.833,630.5 910.5,630.5C 911.82,646.989 920.82,656.155 937.5,658C 949.943,660.018 960.776,656.851 970,648.5C 976.396,639.005 974.229,631.838 963.5,627C 944.493,623.109 925.493,619.109 906.5,615C 882.207,608.767 869.207,593.1 867.5,568C 869.553,541.603 883.22,524.27 908.5,516C 915.57,514.155 922.57,512.655 929.5,511.5 Z"/></g>
</svg>
