<?xml version="1.0" encoding="UTF-8"?>
<!DOCTYPE svg PUBLIC "-//W3C//DTD SVG 1.1//EN" "http://www.w3.org/Graphics/SVG/1.1/DTD/svg11.dtd">
<svg xmlns="http://www.w3.org/2000/svg" version="1.1" width="2400px" height="2400px" style="shape-rendering:geometricPrecision; text-rendering:geometricPrecision; image-rendering:optimizeQuality; fill-rule:evenodd; clip-rule:evenodd" xmlns:xlink="http://www.w3.org/1999/xlink">
<g><path style="opacity:0.893" fill="#000000" d="M 1920.5,590.5 C 1951.47,590.968 1963.64,606.301 1957,636.5C 1950.53,648.911 1940.2,655.245 1926,655.5C 1902.46,653.634 1891.46,640.968 1893,617.5C 1896.09,602.24 1905.26,593.24 1920.5,590.5 Z M 1912.5,605.5 C 1924.59,597.885 1935.42,599.552 1945,610.5C 1950.59,621.193 1949.26,630.859 1941,639.5C 1938.54,634.747 1935.71,630.247 1932.5,626C 1938.12,625.046 1940.79,621.713 1940.5,616C 1940.79,610.287 1938.12,606.954 1932.5,606C 1925.84,605.5 1919.17,605.334 1912.5,605.5 Z M 1912.5,605.5 C 1912.5,617.167 1912.5,628.833 1912.5,640.5C 1903.47,632.883 1901.3,623.55 1906,612.5C 1907.67,609.669 1909.83,607.336 1912.5,605.5 Z M 1921.5,612.5 C 1924.25,612.187 1926.91,612.52 1929.5,613.5C 1931.11,616.157 1930.45,617.99 1927.5,619C 1925.53,619.495 1923.53,619.662 1921.5,619.5C 1921.5,617.167 1921.5,614.833 1921.5,612.5 Z M 1912.5,640.5 C 1915.5,640.5 1918.5,640.5 1921.5,640.5C 1921.33,635.489 1921.5,630.489 1922,625.5C 1924.7,630.041 1927.2,634.708 1929.5,639.5C 1932.78,640.324 1936.12,640.824 1939.5,641C 1930.27,647.103 1921.27,646.937 1912.5,640.5 Z"/></g>
<g><path style="opacity:0.992" fill="#000000" d="M 586.5,592.5 C 639.833,592.5 693.167,592.5 746.5,592.5C 740.377,685.172 734.544,777.838 729,870.5C 763.735,778.128 798.568,685.794 833.5,593.5C 883.496,592.5 933.496,592.167 983.5,592.5C 905.168,803.325 826.335,1013.99 747,1224.5C 693.238,1225.5 639.405,1225.83 585.5,1225.5C 591.292,1134.5 596.792,1043.5 602,952.5C 567.665,1043.34 533.831,1134.34 500.5,1225.5C 450.162,1225.83 399.829,1225.5 349.5,1224.5C 428.513,1013.81 507.513,803.146 586.5,592.5 Z"/></g>
<g><path style="opacity:0.989" fill="#000000" d="M 1002.5,592.5 C 1052.5,592.167 1102.5,592.5 1152.5,593.5C 1073.57,803.795 994.735,1014.13 916,1224.5C 865.905,1225.5 815.738,1225.83 765.5,1225.5C 843.908,1014.27 922.908,803.275 1002.5,592.5 Z"/></g>
<g><path style="opacity:0.993" fill="#000000" d="M 1176.5,592.5 C 1227.17,592.167 1277.84,592.5 1328.5,593.5C 1304.81,654.762 1281.64,716.095 1259,777.5C 1309.83,716 1360.67,654.5 1411.5,593C 1563.83,592.167 1716.17,592.333 1868.5,593.5C 1855.17,628.167 1841.83,662.833 1828.5,697.5C 1777.84,698.5 1727.17,698.833 1676.5,698.5C 1660.9,742.285 1644.9,785.951 1628.5,829.5C 1676.17,830.167 1723.83,830.833 1771.5,831.5C 1756.83,870.5 1742.17,909.5 1727.5,948.5C 1679.5,949.167 1631.5,949.833 1583.5,950.5C 1564.4,1000.64 1545.4,1050.81 1526.5,1101C 1584.5,1101.5 1642.5,1101.67 1700.5,1101.5C 1695.24,1117.62 1689.57,1133.62 1683.5,1149.5C 1904.1,1090.68 2124.76,1031.18 2345.5,971C 2348.95,970.141 2352.45,969.641 2356,969.5C 2363.75,968.565 2366.08,971.565 2363,978.5C 2360.77,980.7 2358.27,982.533 2355.5,984C 1969.25,1151.53 1582.92,1318.86 1196.5,1486C 1005.18,1568.83 813.515,1650.83 621.5,1732C 575.252,1750.97 528.252,1767.97 480.5,1783C 441.269,1794.85 401.269,1802.85 360.5,1807C 261.307,1817.7 173.974,1791.04 98.5,1727C 55.017,1686.11 33.3504,1635.61 33.5,1575.5C 34.6026,1534.55 41.4359,1494.55 54,1455.5C 70.2398,1406.69 90.5731,1359.69 115,1314.5C 177.344,1204.46 250.011,1101.79 333,1006.5C 314.023,1045.74 298.357,1086.41 286,1128.5C 274.047,1170.08 269.714,1212.41 273,1255.5C 283.097,1342.24 328.597,1401.74 409.5,1434C 456.95,1451.01 505.617,1456.67 555.5,1451C 569.956,1449.42 584.29,1447.09 598.5,1444C 868.587,1371.31 1138.59,1298.31 1408.5,1225C 1338.17,1224.78 1267.83,1224.95 1197.5,1225.5C 1195.68,1138.82 1193.35,1052.15 1190.5,965.5C 1157.31,1051.75 1124.31,1138.08 1091.5,1224.5C 1041.5,1225.5 991.504,1225.83 941.5,1225.5C 1019.24,1014.28 1097.57,803.275 1176.5,592.5 Z M 1559.5,610.5 C 1488.97,800.247 1418.14,989.914 1347,1179.5C 1343.41,1070.84 1340.41,962.173 1338,853.5C 1411.7,772.304 1485.53,691.304 1559.5,610.5 Z M 422.5,1345.5 C 442.95,1347.74 450.45,1358.74 445,1378.5C 443.71,1380.79 442.043,1382.79 440,1384.5C 437.042,1380.08 434.208,1375.58 431.5,1371C 438.284,1369.04 440.784,1364.54 439,1357.5C 438.027,1353.59 435.527,1351.43 431.5,1351C 424.833,1350.67 418.167,1350.33 411.5,1350C 415.053,1347.88 418.72,1346.38 422.5,1345.5 Z M 409.5,1351.5 C 410.659,1362.33 410.826,1373.33 410,1384.5C 400.184,1373.65 400.018,1362.65 409.5,1351.5 Z M 420.5,1357.5 C 422.857,1357.34 425.19,1357.5 427.5,1358C 430.167,1360 430.167,1362 427.5,1364C 425.19,1364.5 422.857,1364.66 420.5,1364.5C 420.5,1362.17 420.5,1359.83 420.5,1357.5 Z M 420.5,1371.5 C 423.392,1375.6 426.059,1379.94 428.5,1384.5C 431.785,1385.32 435.118,1385.82 438.5,1386C 429.462,1391.99 420.462,1391.99 411.5,1386C 414.482,1385.5 417.482,1385.34 420.5,1385.5C 420.5,1380.83 420.5,1376.17 420.5,1371.5 Z"/></g>
<g><path style="opacity:0.88" fill="#000000" d="M 420.5,1335.5 C 446.856,1335.35 459.356,1348.35 458,1374.5C 452.376,1393.58 439.542,1402.08 419.5,1400C 398.938,1395.39 389.771,1382.56 392,1361.5C 395.668,1346.33 405.168,1337.66 420.5,1335.5 Z M 422.5,1345.5 C 418.72,1346.38 415.053,1347.88 411.5,1350C 418.167,1350.33 424.833,1350.67 431.5,1351C 435.527,1351.43 438.027,1353.59 439,1357.5C 440.784,1364.54 438.284,1369.04 431.5,1371C 434.208,1375.58 437.042,1380.08 440,1384.5C 442.043,1382.79 443.71,1380.79 445,1378.5C 450.45,1358.74 442.95,1347.74 422.5,1345.5 Z M 409.5,1351.5 C 400.018,1362.65 400.184,1373.65 410,1384.5C 410.826,1373.33 410.659,1362.33 409.5,1351.5 Z M 420.5,1357.5 C 420.5,1359.83 420.5,1362.17 420.5,1364.5C 422.857,1364.66 425.19,1364.5 427.5,1364C 430.167,1362 430.167,1360 427.5,1358C 425.19,1357.5 422.857,1357.34 420.5,1357.5 Z M 420.5,1371.5 C 420.5,1376.17 420.5,1380.83 420.5,1385.5C 417.482,1385.34 414.482,1385.5 411.5,1386C 420.462,1391.99 429.462,1391.99 438.5,1386C 435.118,1385.82 431.785,1385.32 428.5,1384.5C 426.059,1379.94 423.392,1375.6 420.5,1371.5 Z"/></g>
</svg>
