<?xml version="1.0" encoding="UTF-8"?>
<!DOCTYPE svg PUBLIC "-//W3C//DTD SVG 1.1//EN" "http://www.w3.org/Graphics/SVG/1.1/DTD/svg11.dtd">
<svg xmlns="http://www.w3.org/2000/svg" version="1.1" width="5000px" height="2502px" style="shape-rendering:geometricPrecision; text-rendering:geometricPrecision; image-rendering:optimizeQuality; fill-rule:evenodd; clip-rule:evenodd" xmlns:xlink="http://www.w3.org/1999/xlink">
<g><path style="opacity:0.997" fill="#000000" d="M -0.5,-0.5 C 181.5,-0.5 363.5,-0.5 545.5,-0.5C 637.738,7.87431 716.238,44.8743 781,110.5C 853.069,192.833 872.736,286.499 840,391.5C 815.901,460.262 771.734,511.762 707.5,546C 690.417,555.042 672.75,562.709 654.5,569C 709.309,582.293 754.142,610.793 789,654.5C 811.554,686.154 824.221,721.488 827,760.5C 827.5,847.166 827.667,933.833 827.5,1020.5C 754.5,1020.5 681.5,1020.5 608.5,1020.5C 608.667,957.166 608.5,893.832 608,830.5C 604.547,717.713 546.38,659.547 433.5,656C 382.501,655.5 331.501,655.333 280.5,655.5C 280.5,597.167 280.5,538.833 280.5,480.5C 353.167,480.667 425.834,480.5 498.5,480C 565.508,471.662 607.675,434.828 625,369.5C 633.488,329.683 629.155,291.35 612,254.5C 592.464,221.319 563.964,199.819 526.5,190C 514.04,186.708 501.373,184.708 488.5,184C 394.501,183.5 300.501,183.333 206.5,183.5C 206.5,401.5 206.5,619.5 206.5,837.5C 137.5,837.5 68.5,837.5 -0.5,837.5C -0.5,558.167 -0.5,278.833 -0.5,-0.5 Z"/></g>
<g><path style="opacity:0.994" fill="#000000" d="M 2633.5,-0.5 C 2705.17,-0.5 2776.83,-0.5 2848.5,-0.5C 2848.5,219.5 2848.5,439.5 2848.5,659.5C 2907.83,659.667 2967.17,659.5 3026.5,659C 3080.91,649.909 3119.75,620.409 3143,570.5C 3163.29,516.808 3157.62,466.141 3126,418.5C 3103.71,387.913 3073.88,369.079 3036.5,362C 2997.85,360.883 2959.19,360.049 2920.5,359.5C 2919.17,300.637 2919.17,241.804 2920.5,183C 2970.83,182.333 3021.17,182.333 3071.5,183C 3166.72,190.352 3243.89,231.186 3303,305.5C 3366.42,392.246 3386.75,488.246 3364,593.5C 3345.46,655.69 3311.3,707.523 3261.5,749C 3192.72,804.608 3113.89,834.108 3025,837.5C 2895.32,837.658 2765.15,837.491 2634.5,837C 2633.5,557.903 2633.17,278.736 2633.5,-0.5 Z"/></g>
<g><path style="opacity:0.994" fill="#000000" d="M 4319.5,-0.5 C 4391.17,-0.5 4462.83,-0.5 4534.5,-0.5C 4534.17,132.502 4534.5,265.502 4535.5,398.5C 4568.74,399.026 4601.9,399.36 4635,399.5C 4707.18,396.328 4752.18,359.662 4770,289.5C 4773.42,275.005 4775.75,260.338 4777,245.5C 4778.23,224.518 4778.73,203.518 4778.5,182.5C 4849.17,182.5 4919.83,182.5 4990.5,182.5C 4991.73,221.697 4989.56,260.697 4984,299.5C 4972.93,376.849 4932.43,432.349 4862.5,466C 4844.28,474.442 4825.61,481.775 4806.5,488C 4855.5,500.241 4898,523.741 4934,558.5C 4974.58,604.197 4995.58,657.863 4997,719.5C 4997.83,758.738 4997.66,797.904 4996.5,837C 4925.5,837.667 4854.5,837.667 4783.5,837C 4782.67,796.904 4782.17,756.738 4782,716.5C 4774.26,645.766 4736.09,601.266 4667.5,583C 4653.36,579.608 4639.03,577.608 4624.5,577C 4594.5,576.5 4564.5,576.333 4534.5,576.5C 4534.5,663.5 4534.5,750.5 4534.5,837.5C 4462.79,838.162 4391.29,837.495 4320,835.5C 4319.5,556.834 4319.33,278.167 4319.5,-0.5 Z"/></g>
<g><path style="opacity:0.995" fill="#000000" d="M 3814.5,173.5 C 3880.27,170.586 3944.27,179.753 4006.5,201C 4081.72,227.904 4140.55,275.07 4183,342.5C 4217.31,404.048 4231.98,470.048 4227,540.5C 4216.33,659.085 4159.5,747.585 4056.5,806C 3998.63,836.553 3936.96,853.553 3871.5,857C 3778.37,863.512 3691.7,843.179 3611.5,796C 3498.32,722.134 3445.82,617.3 3454,481.5C 3468.38,350.5 3535.88,259 3656.5,207C 3707.42,187.051 3760.09,175.884 3814.5,173.5 Z M 3830.5,341.5 C 3908.57,342.469 3964.74,377.802 3999,447.5C 4024.37,513.088 4015.04,573.755 3971,629.5C 3920.34,683.128 3859.18,700.628 3787.5,682C 3729.51,662.005 3691.01,622.839 3672,564.5C 3654.77,494.899 3671.94,435.399 3723.5,386C 3754.34,359.554 3790,344.721 3830.5,341.5 Z"/></g>
<g><path style="opacity:0.995" fill="#000000" d="M 2066.5,182.5 C 2207.17,182.5 2347.83,182.5 2488.5,182.5C 2488.67,245.834 2488.5,309.168 2488,372.5C 2442.5,443.333 2397,514.167 2351.5,585C 2282.83,585.667 2214.17,585.667 2145.5,585C 2190.33,510.833 2235.17,436.667 2280,362.5C 2281.19,360.956 2281.52,359.289 2281,357.5C 2225.67,358.833 2170.33,358.833 2115,357.5C 2042.54,361.711 1994.54,398.044 1971,466.5C 1955.24,532.566 1973.41,587.066 2025.5,630C 2048.16,646.333 2073.5,655.333 2101.5,657C 2230.5,657.5 2359.5,657.667 2488.5,657.5C 2488.5,716.5 2488.5,775.5 2488.5,834.5C 2344.83,834.667 2201.17,834.5 2057.5,834C 1950.29,824.329 1866.79,775.163 1807,686.5C 1752.43,597.576 1740.76,503.242 1772,403.5C 1810.02,299.819 1881.52,230.652 1986.5,196C 2012.82,188.558 2039.49,184.058 2066.5,182.5 Z"/></g>
<g><path style="opacity:0.995" fill="#000000" d="M 1219.5,185.5 C 1364.17,185.5 1508.83,185.5 1653.5,185.5C 1653.67,248.501 1653.5,311.501 1653,374.5C 1607.5,445.5 1562,516.5 1516.5,587.5C 1447.84,588.667 1379.17,588.833 1310.5,588C 1355.67,512.167 1400.83,436.333 1446,360.5C 1446.67,359.5 1446.67,358.5 1446,357.5C 1390.67,358.833 1335.33,358.833 1280,357.5C 1215.76,360.946 1169.76,391.613 1142,449.5C 1121.74,502.756 1127.74,552.756 1160,599.5C 1187.08,634.799 1222.92,654.632 1267.5,659C 1396.17,659.5 1524.83,659.667 1653.5,659.5C 1653.83,718.738 1653.5,777.905 1652.5,837C 1514.18,837.491 1376.35,837.658 1239,837.5C 1123.36,831.868 1033.69,781.201 970,685.5C 923.423,608.368 909.423,526.034 928,438.5C 951.956,342.242 1007.12,270.075 1093.5,222C 1133.23,201.585 1175.23,189.419 1219.5,185.5 Z"/></g>
<g><path style="opacity:0.995" fill="#000000" d="M 4999.5,1164.5 C 4999.5,1164.83 4999.5,1165.17 4999.5,1165.5C 4750.09,1225.02 4502.09,1289.85 4255.5,1360C 3981.17,1439 3711.17,1530.33 3445.5,1634C 3364.5,1665.84 3283.5,1697.67 3202.5,1729.5C 3025.21,1626.19 2848.21,1522.35 2671.5,1418C 2804.21,1391.55 2937.54,1368.55 3071.5,1349C 3354.31,1308.19 3637.98,1274.52 3922.5,1248C 4281.06,1214.48 4640.06,1186.65 4999.5,1164.5 Z"/></g>
<g><path style="opacity:0.995" fill="#000000" d="M 4203.5,2501.5 C 4202.83,2501.5 4202.17,2501.5 4201.5,2501.5C 3926.69,2384.24 3652.03,2267.41 3377.5,2151C 3123.55,2043.62 2868.55,1940.96 2612.5,1843C 2137.3,1662.05 1652.64,1511.05 1158.5,1390C 847.194,1314.07 533.861,1247.74 218.5,1191C 217.833,1190.67 217.167,1190.33 216.5,1190C 508.333,1189.83 800.167,1189.67 1092,1189.5C 1383.83,1189.67 1675.67,1189.83 1967.5,1190C 2004.48,1209.16 2041.15,1228.82 2077.5,1249C 2168,1300.08 2258.33,1351.41 2348.5,1403C 2848.3,1691.72 3345.97,1983.72 3841.5,2279C 3956.17,2347.33 4070.17,2416.66 4183.5,2487C 4190.41,2491.61 4197.08,2496.44 4203.5,2501.5 Z"/></g>
<g><path style="opacity:0.997" fill="#000000" d="M 1634.5,1673.5 C 1659.69,1679.55 1684.69,1686.38 1709.5,1694C 1846.63,1735.27 1982.96,1778.93 2118.5,1825C 1907.94,1905.75 1711.6,2011.09 1529.5,2141C 1453.08,2196.06 1380.74,2256.39 1312.5,2322C 1269.11,2364.03 1229.45,2409.03 1193.5,2457C 929.5,2457.67 665.5,2457.67 401.5,2457C 496.688,2336.14 605.354,2229.14 727.5,2136C 854.621,2040.05 989.955,1956.38 1133.5,1885C 1258.82,1822.79 1386.82,1766.79 1517.5,1717C 1556.56,1702.37 1595.56,1687.87 1634.5,1673.5 Z"/></g>
<g><path style="opacity:0.997" fill="#000000" d="M 2281.5,1880.5 C 2409.09,1923.63 2535.42,1970.13 2660.5,2020C 2606.98,2058.51 2554.32,2098.18 2502.5,2139C 2407.26,2215.57 2323.76,2303.07 2252,2401.5C 2239.5,2419.83 2227,2438.17 2214.5,2456.5C 1974.5,2457.67 1734.5,2457.83 1494.5,2457C 1520.07,2421.75 1547.9,2388.25 1578,2356.5C 1671.41,2260.18 1773.24,2174.68 1883.5,2100C 2009.12,2015.07 2141.79,1941.9 2281.5,1880.5 Z"/></g>
</svg>
